<?xml version="1.0" encoding="UTF-8"?>
<svg version="1.1" viewBox="0 0 2048 627" width="395" height="121" xmlns="http://www.w3.org/2000/svg">
<path transform="translate(0)" d="m0 0h2048v627h-2048z" fill="#FDFDFD"/>
<path transform="translate(768,367)" d="m0 0h1139l1 12v155l-74 1h-972l-95-1v-28z" fill="#EE2723"/>
<path transform="translate(240,121)" d="m0 0h100l2 5 8 68 1 5h405l9 3 7 8v13l-15 61-14 58-10 42-12 50-6 24-4 6-3 3-9 2-28 1-96 1-167 1h-89l-9-3-7-8-1-2-1-231-2-36-2-19-1-1-60-1-8-4-6-7-4-8-1-7 3-10 9-10 6-3z" fill="#FC3631"/>
<path transform="translate(1471,167)" d="m0 0h57l1 3 4 92 1 19h2l1-27 3-67 1-19 1-1h56l1 1v179h-40l1-23 3-42 2-47h-3v16l-7 69-3 27-1 1h-26l-7-1-1-2-9-86-1-25h-2l1 37 5 76h-41v-179z" fill="#070201"/>
<path transform="translate(1279,167)" d="m0 0h44l1 1v74h7v-74l1-1h45v180h-46v-74l-7 1v73l-1 1h-21l-24-1v-179z" fill="#070201"/>
<path transform="translate(1061,167)" d="m0 0h46l1 5-2 70h4l1-21 2-40 1-11 1-3h49l-1 14-9 63-1 6v13l12 81v3l-13 1h-18l-19-1-1-2-4-62-1-8-3-1 1 14 1 59h-47z" fill="#040101"/>
<path transform="translate(1740,167)" d="m0 0h49l3 20 8 70 2 14 2 1-1-3-6-89v-12l2-1h38v180l-1 1h-43l-5-1-2-8-9-86-1-19h-2l2 48 4 57v8l-1 1h-25l-14-1z" fill="#040101"/>
<path transform="translate(965,167)" d="m0 0h50l1 1 15 103 11 73v3l-11 1h-24l-12-1-1-4-1-18h-6l-1 22h-48l6-40 19-130z" fill="#060101"/>
<path transform="translate(1644,167)" d="m0 0h51l16 109 10 67v4l-11 1h-21l-15-1-1-9v-14l-7 2-1 21h-47l1-11 14-97 10-68z" fill="#050101"/>
<path transform="translate(864,164)" d="m0 0h17l14 3 10 5 6 5 6 12 1 6v23l-1 2h-38l-2-2-1-22-4-1-1 1 1 13 7 14 12 13 9 10 10 16 6 15 3 14 1 10v20l-3 11-7 8-9 6-9 3-6 1h-23l-14-3-10-5-7-7-4-10-1-7v-31h42l1 7v25h5l1-5-2-18-4-10-7-12-10-11-9-11-8-11-6-14-2-8-1-9v-13l2-11 6-10 9-7 12-4z" fill="#060101"/>
<path transform="translate(523,485)" d="m0 0h17l16 4 12 6 10 9 7 8 7 14 3 11 1 8v10l-3 14-6 12-8 10-10 9-14 7-14 3h-17l-12-3-14-7-11-10-8-11-5-11-3-13v-17l3-13 8-15 7-8 12-9 11-5z" fill="#FFD02E"/>
<path transform="translate(349,485)" d="m0 0h17l10 2 12 5 11 7 9 9 8 14 4 12 1 6v19l-3 12-6 11-11 13-10 7-11 5-13 3h-17l-14-4-12-6-10-9-9-12-6-13-3-14v-12l3-12 4-10 8-11 10-10 14-8 9-3z" fill="#FFD02E"/>
<path transform="translate(0,332)" d="m0 0h243l21 1 8 3 6 8 1 4v10l-7 9-8 4-6 1h-258z" fill="#FC3631"/>
<path transform="translate(1183,167)" d="m0 0h77l1 1v33l-1 1-14 1-1 144h-47v-144l-16-2v-13z" fill="#030101"/>
<path transform="translate(1398,167)" d="m0 0h47v180h-48z" fill="#060201"/>
<path transform="translate(117,450)" d="m0 0h112l37 1 8 4 4 6 1 4v11l-4 8-6 4-18 2h-131l-10-4-5-6-2-6v-9l3-7 5-6z" fill="#FD3732"/>
<path transform="translate(117,220)" d="m0 0h149l7 3 5 8 1 4v10l-4 8-6 5-6 1h-146l-6-3-6-6-2-6v-9l3-8 5-5z" fill="#FD3732"/>
<path transform="translate(1300,407)" d="m0 0h12l8 2 10 32v2h2l3-11 5-15 4-8 2-1 10-1h17l2 1 1 8 2 47v24h-23l-1-9-1-30-1-3-5 19-7 22-1 1h-14l-3-5-9-29-3-8-1 33-1 9h-22l-1-1 2-53 1-18 2-7z" fill="#010101"/>
<path transform="translate(1011,407)" d="m0 0h11l2 5 1 52h11l1-48 1-7 1-1 9-1h15v61l-3 7-4 5-10 6-6 2h-18l-9-3-9-7-5-9-1-7v-33l1-20 2-1z" fill="#010101"/>
<path transform="translate(1480,407)" d="m0 0h15l17 1 12 3 6 7 3 9-1 11-3 7-5 7 1 5 9 14 1 2v6l-5 6-6 2h-10l-3-4-9-20-3-1v25l-1 1h-16l-6-2v-73l1-5z" fill="#010101"/>
<path transform="translate(1213,408)" d="m0 0h35l11 3 5 4 3 5 1 4v12l-3 9-6 7 2 6 7 10 2 4v8l-5 6-6 1h-10l-8-16-3-8-3 1v23l-10 1-13-1v-77z" fill="#010101"/>
<path transform="translate(1552,407)" d="m0 0h21l1 1v15l-1 11h2l1-5 9-17 3-4 6-1h15l3 1-1 6-6 11-6 10-4 7v6l12 17 5 8 1 7-7 6-3 1h-11l-4-4-9-16-5-7-1 27-3 1-20-1v-78z" fill="#010101"/>
<path transform="translate(1431,407)" d="m0 0h8l6 2 18 72v7h-16l-7-2-5-13v-2h-17l-3 9-2 7h-21l-1-3 10-36 10-38 2-2z" fill="#010101"/>
<path transform="translate(1078,408)" d="m0 0h36l10 3 6 7 3 7 1 9-3 14-6 8-8 6-15 4-1 1-1 20-2 1h-11l-10-1v-76z" fill="#010101"/>
<path transform="translate(955,406)" d="m0 0h10l15 2 2 2v9l-2 10h-8l-6-1h-8l1 4 12 7 9 7 4 6 2 10-4 12-6 8-8 5-3 1h-16l-10-3-6-5-2-5v-7l2-6 2-3 9 3 5 3h9l-2-4-12-8-8-8-4-9v-10l5-10 7-6 6-3z" fill="#010101"/>
<path transform="translate(1151,407)" d="m0 0h45v14l-1 7-1 1-21 1v6l15 3 1 1v15l-1 2-3 1h-12v7l4 1 17 1 2 3v17l-4 1h-35l-8-1v-65l1-14z" fill="#010101"/>
<path transform="translate(1630,407)" d="m0 0h42l1 1v17l-1 3-3 1-20 1 1 6 16 4v16l-10 2-6 1v6l2 1 19 1 2 1v19l-4 1h-35l-7-1v-78z" fill="#010101"/>
<path transform="translate(1717,407)" d="m0 0h17l6 1v15l-2 4-10 3h-4v55l-1 2-3 1h-15l-5-1v-58h-12l-4-1v-19l1-1z" fill="#010101"/>
<path transform="translate(768,367)" d="m0 0h1139l-1 3v-2l-13 1-7 2-4 1h-36l-4-2 1-1h-897l-21 1-1 1-35 2h-15l-10 1h-61l-21 2-4-1-7 1-2-6z" fill="#FD3732"/>
<path transform="translate(1668,224)" d="m0 0 2 1 1 4 1 29v41h-5l-1-1v-22z" fill="#FDFDFD"/>
<path transform="translate(989,224)" d="m0 0 2 1 1 9 1 33v32h-5l-1-1v-27z" fill="#FDFDFD"/>
<path transform="translate(1499,429)" d="m0 0h8l3 3-2 9-3 2h-6l-1-2v-11z" fill="#EE2723"/>
<path transform="translate(1235,429)" d="m0 0h7l3 2-1 10-4 2h-5l-2-5v-7z" fill="#EE2723"/>
<path transform="translate(1101,429)" d="m0 0h9l1 6-2 6-2 2h-6l-2-7v-5z" fill="#EE2723"/>
<path transform="translate(1425,435)" d="m0 0h4l1 4v15l-1 1h-7l-1-2 3-17z" fill="#EE2723"/>
<path transform="translate(1173,458)" d="m0 0h12l-4 4 2 4h-10l-1-1z" fill="#FA342F"/>
<path transform="translate(272,250)" d="m0 0h3v3l-5 4-9 1-2-2 2-4h8z" fill="#EF2824"/>
<path transform="translate(1650,458)" d="m0 0h9l-3 3 2 5h-8l-1-1v-6z" fill="#FA342F"/>
<path transform="translate(949,457)" d="m0 0 4 1 5 4 1 3-1 1h-9l-1-3 3-1z" fill="#F9332E"/>
<path transform="translate(767,506)" d="m0 0h1l1 25h3v2l2 1h-7z" fill="#FD3732"/>
<path transform="translate(957,428)" d="m0 0h2v2l4 1 2 1v2h3l2 4-5-2-8-5z" fill="#F8322D"/>
<path transform="translate(1649,430)" d="m0 0h6l-2 1 2 4 2 2h-7l-1-1z" fill="#FB3530"/>
<path transform="translate(1172,430)" d="m0 0h5l-1 4 4 3h-7l-1-1z" fill="#FB3430"/>
<path transform="translate(1235,462)" d="m0 0 4 1v7l-1 2h-2v-8l-2-1z" fill="#FB3530"/>
<path transform="translate(1499,462)" d="m0 0 4 1v7l-1 2h-2z" fill="#FB3530"/>
<path transform="translate(1059,475)" d="m0 0 2 1-6 7-9 4v-2l10-6z" fill="#F9332E"/>
<path transform="translate(1578,421)" d="m0 0 1 4-4 7h-1l1-9z" fill="#F9332E"/>
</svg>
